HIERARCHY
ROOT hip
{
  OFFSET 0.0 0.0 0.0
  CHANNELS 6 Xposition Yposition Zposition Zrotation Yrotation Xrotation
  JOINT torso
  {
    OFFSET 0.0 0.0 0.0
    CHANNELS 3 Zrotation Xrotation Yrotation
    JOINT neck
    {
      OFFSET -8.059630999999968 325.56260699999996 64.6221310000002
      CHANNELS 3 Zrotation Xrotation Yrotation
      JOINT head
      {
        OFFSET 34.685424000000125 375.1179809999999 232.79357900000002
        CHANNELS 3 Zrotation Xrotation Yrotation
        End Site
        {
          OFFSET 0.0 0.0 0.0
        }
      }
    }
    JOINT left_collar
    {
      OFFSET -8.059630999999968 325.56260699999996 64.6221310000002
      CHANNELS 3 Zrotation Xrotation Yrotation
      JOINT left_upper_arm
      {
        OFFSET -124.124665 -15.370300999999927 25.582641999999964
        CHANNELS 3 Zrotation Xrotation Yrotation
        JOINT left_forearm
        {
          OFFSET -268.19913399999996 105.06054699999993 114.74548300000004
          CHANNELS 3 Zrotation Xrotation Yrotation
          JOINT left_hand
          {
            OFFSET -235.82003099999991 -10.198180999999977 -38.67455999999993
            CHANNELS 3 Zrotation Xrotation Yrotation
            End Site
            {
              OFFSET 0.0 0.0 0.0
            }
          }
        }
      }
    }
    JOINT right_collar
    {
      OFFSET -8.059630999999968 325.56260699999996 64.6221310000002
      CHANNELS 3 Zrotation Xrotation Yrotation
      JOINT right_upper_arm
      {
        OFFSET 162.73931899999997 -2.8598030000000563 26.244994999999903
        CHANNELS 3 Zrotation Xrotation Yrotation
        JOINT right_forearm
        {
          OFFSET 284.6506340000001 103.07031299999994 145.84521499999994
          CHANNELS 3 Zrotation Xrotation Yrotation
          JOINT right_hand
          {
            OFFSET 226.332337 -12.198241999999937 -49.27258299999994
            CHANNELS 3 Zrotation Xrotation Yrotation
            End Site
            {
              OFFSET 0.0 0.0 0.0
            }
          }
        }
      }
    }
  }
}
MOTION
Frames: 6
Frame Time: 0.01
277.08858605214846 151.85000817005456 198.68687708057294 -8.951425894195625 -13.352155134945114 33.080112221305434 0.8370850521154701 -0.8917049857759686 -0.19448326234735 1.342117028937214 -1.5446187671747593 -0.7015620339648881 0.0 0.0 0.0 2.8965883128169456 0.05181139184897535 3.6546390751368363 36.08266300423204 13.93294864284295 -13.068401983396814 39.294748287446566 28.143411506558376 -80.73979553526863 0.0 0.0 0.0 -1.8909469561658365 0.14726999949047254 -4.599001610234635 -39.59704187608538 18.54077010209126 0.07618628964607942 -59.25464158514929 6.827598506512354 33.182255586821434 0.0 0.0 0.0
276.97767617752606 152.43438918930306 197.3031922475413 -8.726090043866513 -13.183218259623166 32.63989786069098 0.8297522015159632 -0.8207623696262389 -0.19072877901274396 1.2435832531709285 -1.6841906321709417 -0.6279570434998015 0.0 0.0 0.0 2.8712841986218938 0.03908048560813037 3.7107223730349532 35.45841848150874 13.609788414052732 -13.633957072149933 35.69097046503553 27.475838025813943 -84.22446639409736 0.0 0.0 0.0 -1.8737632431520426 0.14622046128292487 -4.568986375607561 -39.80080429256094 18.6025379878165 -0.31554802551331596 -60.0744046598812 6.3891260784019845 32.37215154028924 0.0 0.0 0.0
276.8612353961548 153.04618296239448 195.9300506509407 -8.493125167559155 -12.97516454447555 32.22258366354103 0.8150468608768671 -0.7786648389113973 -0.1863811286621653 1.1567933242543544 -1.8264484199518158 -0.5613766908567694 0.0 0.0 0.0 2.838181133036901 0.02954552089457252 3.736352201004687 34.82888551919485 13.276324055353694 -14.176558521839366 32.0049583632974 26.507155907771985 -87.63998196505466 0.0 0.0 0.0 -1.859763283659498 0.1448864214800565 -4.558482059338699 -39.98672847588588 18.65515752840642 -0.7057609499710502 -60.787343457394286 5.977254144834742 31.640291640450794 0.0 0.0 0.0
276.7456059124347 153.6858184780756 194.55962544911682 -8.254203197200843 -12.729773483079569 31.82374834900601 0.7951267209088144 -0.7641675181600069 -0.18184114995966982 1.0801316045960598 -1.9728221338991694 -0.5007086755577135 0.0 0.0 0.0 2.7979794762131602 0.022986138654588473 3.733682431257612 34.19646064935398 12.934402001500457 -14.68626314510946 28.28413811823164 25.23206950226487 -90.92365914305539 0.0 0.0 0.0 -1.8484099086585686 0.1433222941509761 -4.564195534358215 -40.15250774091963 18.69788145071554 -1.0942004003728258 -61.40861692300271 5.598265758464094 30.987479506469313 0.0 0.0 0.0
276.6376002407105 154.35366429908058 193.1838156759042 -8.010944419675473 -12.44927674740894 31.43848679271929 0.7721117964518928 -0.7755699202517052 -0.17747890302178718 1.011770728027632 -2.1247581342140056 -0.44469950187911317 0.0 0.0 0.0 2.751507692328104 0.019119170927691526 3.7053935144163286 33.56403466217344 12.586496823670771 -15.152944921440483 24.57368629761061 23.655683815363457 -94.0147306746677 0.0 0.0 0.0 -1.8391424313267777 0.14158489398239174 -4.582565986399079 -40.29622035093153 18.730208249894186 -1.4799729915170956 -61.9527646730466 5.256334231096914 30.412720350995247 0.0 0.0 0.0
276.54435931256785 155.04995067671982 191.79454611405475 -7.764880387931402 -12.136247164064388 31.06157871138737 0.7480189929217663 -0.8108228567339731 -0.173629280234942 0.9497394780278073 -2.283660869153821 -0.39200187242118284 0.0 0.0 0.0 2.6997003647491358 0.017616198672024644 3.654576202176965 32.93491167392047 12.235675646305834 -15.566590685615024 20.913178929062827 21.793684283510057 -96.85792361097343 0.0 0.0 0.0 -1.8313945966142595 0.13973285106915728 -4.609884918344995 -40.41641562255901 18.751900794442967 -1.8617013134791518 -62.433337690074175 4.953718986970306 29.913472548528873 0.0 0.0 0.0
